<svg xmlns="http://www.w3.org/2000/svg" version="1.1" xmlns:xlink="http://www.w3.org/1999/xlink" xmlns:svgjs="http://svgjs.dev/svgjs" width="2000" height="1500" viewBox="0 0 2000 1500"><rect width="2000" height="1500" fill="#000000"></rect><g transform="matrix(0.4444444444444444,0,0,0.4444444444444444,555.5556208333335,250)"><svg viewBox="0 0 320 360" data-background-color="#ffffff" preserveAspectRatio="xMidYMid meet" height="2250" width="2000" xmlns="http://www.w3.org/2000/svg" xmlns:xlink="http://www.w3.org/1999/xlink"><g id="tight-bounds" transform="matrix(1,0,0,1,0.000023499999997511622,0)"><svg viewBox="0 0 320 360" height="360" width="320"><g><svg></svg></g><g><svg viewBox="0 0 320 360" height="360" width="320"><g><path transform="translate(-74.99272,-51.79039) scale(4.65793,4.65793)" d="M20.6 59.9l0.8 1-0.4-1.3c-0.1-0.6-0.8 0.1-0.4 0.3M21.5 59.3c0.3 0.5 0.6 1 0.6 1.5 0 0.7 0.6 1 1.1 1.2-0.7-0.8-1.1-3-1.7-2.7M59.9 16.9c1.7 0 3.3-0.2 5.1 0.2 4.4 1.1 8.1 3.3 10.6 6.4l7 11.2c0.3 2.8 0.9 5.9 0.8 9.3 0.7 0 0.6-1 1.4-1.2-0.8 2-1.2 4.5-1.4 7.4-0.5-1.6 0-4 0.1-5.3-0.7 1.1-1.1 0.3-1.1-0.2 0.1-0.8-0.3-0.7-0.6-1-1.1-1-1.8-2.1-2.6-3.8 0.5-1.3 0.6-3.2-1-4.2-0.5-0.3-1.1-0.8-1.4-1.6-0.4-1.1-1.1-2.4-0.9-4.1 0.1-0.5-1.5 1.1-2.4 0.4-3.9-2.7-7.8-5.8-12.5-8.4-2.5 0-4.3-0.9-5.2-2-0.8-1-0.2-2.3 1-2.4 0.7 0 1.5-0.2 2.1 0.2 0.1-0.4 0.5-0.9 1-0.9M50 14.6l0.2 0.1c1 0.2 1.5 1.6 2.6 1.1 0 0.7 0.1 1.4-0.1 1.9-0.3 0.8-1.2 0.8-1.9 0.8-6.7-0.4-10.6 2.4-14.7 4.8-1.1 0.7-2.3 1.2-3.2 2.1-4.3 4-9 7.7-10.1 15.1l-0.9 8.2c-0.1 0.9-1.1 1.8-0.9 2.9l0.7 4.9c-0.7-0.7-1.1 0.2-0.9 0.6 0.1 0.3 0.5 1.3 1.1 0.4 0.8 1.5 1.6 4.4 2.7 5.7 3.4 4 7.8 7.6 11.4 11.2 0.9-0.2 1.6-0.2 1.8-0.8 0.3 0.6-0.3 1.2-0.8 1.3 1.6 1 3.4 1.9 5.8 2.1 3.1 0.2 6 0.7 8.7 1.4 1.4-0.4 2.8-0.6 4.3-0.7 0.5 0 0.8-0.8 1.4-1l0.1-1c0.6 0.9 0.5-0.3 0.1-0.9 0.7 0.6 0.9 1.1 1.2 1.5 0-0.3 0.8-1.4 0.8-0.1l0.2-1.3c0.3-0.2 0.4 1.1 0.7 0.2 0.3-0.9 0.9-0.2 1.5-0.5-0.2 0.4-0.1 1.2 0.6 0.7l0.8-0.7c0.5 1.2 1.3 0.7 1.7 0.5 4.4-2.8 8.8-6.1 13-9.4l-0.1 1.3 0.5-1.6c0.5 0.5 0.9 0.1 1.1-0.2 0.6-1 1.4-2 2.7-2.9-1.6 4.3-3.5 7.7-5.9 10.5l-1 1.2c0 0.7-0.2 1.6-1 1.7-0.4 0.1-1.2-0.2-1.8 0.4-0.3 0.4 0.7 1.2-0.1 0.6-0.7-0.5-1.4 0-2.2 0.2-0.6 0.2 0.4 0.8 0.6 1.2 0.2 0.4 0.4 0.8 0.3 1.3l-1.1-1.2c-1.3 0.7-2.1 2-3.2 3-0.5 0.4-0.3 1.1-0.3 1.7-0.7 0-1.5-0.2-1.9 0.2-0.3 0.4-0.2 1-0.2 1.6-1-0.1-1.1-1.6-2-1.3-0.9 0.2-1.9 0.3-2.7 0.8 0.6 1.2-1 0.5-0.8 0.7-1.5-0.9-2.8-1.6-4.4-1-3.4-1.1-7.6-0.6-10.7-0.2 0-0.5 0.1-1-0.1-1.1-0.2 0.5-0.8 0.3-0.7 0.3-1.9-1.3-3.8-2.1-5.8-3.2-1.8 0.2-3.5-0.7-4-1.2-1.4-1.3-3-0.6-4.3-0.9-2.8-0.7-3.8-3.6-4.1-5.6-0.2-1-1-1.4-1.3-1.3-1.3-4.2-3.3-8-4.9-11.9-0.4-1-0.3-2-0.3-3.1 0.5 0.2 1 0.1 0.9-0.6-0.5-3.3-1.7-5.8-3-8.2 0.7-3.4 0.8-7.4 2.4-10.4 1.4-2.7 4-4.1 5.8-6.4 0.6-0.8 0.6-1.9 1.2-2.6 2-2 4-4.1 6.2-5.9 1-0.8 2.2 0 3.7-0.3 0.5-1.8 2.5-3.4 4.4-2.9 0.8 0.2 2.4-1.9 2.9-2.1 0.8-0.3 0.4 0.8 0.4 1.5 1.9-1.5 4.5-2.3 6.9-3.2" fill="#ffffff" fill-rule="nonzero" stroke="none" stroke-width="1" stroke-linecap="butt" stroke-linejoin="miter" stroke-miterlimit="10" stroke-dasharray="" stroke-dashoffset="0" font-family="none" font-weight="none" font-size="none" text-anchor="none" style="mix-blend-mode: normal" data-fill-palette-color="tertiary"></path></g><g transform="matrix(1,0,0,1,90.9241420602194,90)"><svg viewBox="0 0 138.1517158795612 180" height="180" width="138.1517158795612"><g><svg viewBox="0 0 138.1517158795612 180" height="180" width="138.1517158795612"><g><svg viewBox="0 0 192 250.15975936287998" height="180" width="138.1517158795612"><g transform="matrix(1,0,0,1,0,128.86069719969214)"><svg viewBox="0 0 192 121.29906216318786" height="121.29906216318786" width="192"><g id="textblocktransform"><svg viewBox="0 0 192 121.29906216318786" height="121.29906216318786" width="192" id="textblock"><g><svg viewBox="0 0 192 68.76660341555977" height="68.76660341555977" width="192"><g transform="matrix(1,0,0,1,0,0)"><svg width="192" viewBox="1.5 -36.75 105.39 37.75" height="68.76660341555977" data-palette-color="#000000"><path d="M17.1-32.9L17.1-32.9Q23.35-32.9 27.55-28.08 31.75-23.25 31.75-16.45L31.75-16.45Q31.75-9.25 27.38-4.73 23-0.2 15.9 0L15.9 0 1.8 0 1.5-1.6 5.75-3.15 5.75-29.9 2.2-30.1 2.25-32.5Q10.15-32.9 17.1-32.9ZM15.05-3.3L15.05-3.3Q20.25-3.3 23.4-6.98 26.55-10.65 26.55-16.45L26.55-16.45Q26.55-20.9 24.58-24.65 22.6-28.4 19.6-29.95L19.6-29.95 10.4-29.2 10.4-3.95Q12.85-3.3 15.05-3.3ZM33.75-11.8Q33.75-17.4 36.92-20.9 40.1-24.4 45.05-24.4L45.05-24.4Q49.95-24.4 53-20.8 56.05-17.2 56.05-11.5L56.05-11.5Q56.05-5.85 53.05-2.43 50.05 1 45.15 1L45.15 1Q40.2 1 36.97-2.6 33.75-6.2 33.75-11.8ZM48.1-2.6L48.1-2.6Q51.35-4.75 51.35-10.95L51.35-10.95Q51.35-15.4 49.7-18.35 48.05-21.3 44.65-21.3L44.65-21.3Q42.4-21.3 40.85-20.2L40.85-20.2Q38.5-17.4 38.5-12.35L38.5-12.35Q38.5-8.05 40.32-5.15 42.15-2.25 45.7-2.25L45.7-2.25Q46.85-2.25 48.1-2.6ZM65.05-20.3L70.95-24.05 72.84-24.25Q76.8-24.25 79.42-20.88 82.05-17.5 82.05-12.5L82.05-12.5Q82.05-6.7 78.4-2.88 74.75 0.95 69.15 0.95L69.15 0.95Q65.3 0.95 60.59-1.2L60.59-1.2 60.59-33.15 56.9-32.85 56.3-35.2Q59.65-36.65 63.09-36.75L63.09-36.75 65.05-34.95 65.05-20.3ZM71.15-2.35L73.09-2.5Q75.05-3.7 76.2-6.2 77.34-8.7 77.34-11.5L77.34-11.5Q77.34-15.05 75.59-17.6 73.84-20.15 71.2-20.15L71.2-20.15Q68.8-20.15 65.05-17.65L65.05-17.65 65.05-4.2Q67.59-2.35 71.15-2.35L71.15-2.35ZM106.14-3.75L106.89-1.55 101.84 0.75Q101.09 0.65 99.94-0.43 98.79-1.5 98.29-2.7L98.29-2.7 92.64 0.7 91.44 0.75Q88.44 0.75 86.62-0.95 84.79-2.65 84.79-5.2L84.79-5.2Q84.79-8.6 88.29-10.55L88.29-10.55 98.04-10.8 98.04-15.95Q98.04-18.25 97.49-19.43 96.94-20.6 95.59-21.3L95.59-21.3Q92.54-21.2 89.94-20.45L89.94-20.45 89.54-15.25 86.89-15.05Q85.59-17.4 85.44-21.05L85.44-21.05Q87.64-22.3 91.34-23.48 95.04-24.65 96.59-24.65L96.59-24.65Q97.99-24.65 99.49-23.63 100.99-22.6 101.74-21.48 102.49-20.35 102.54-17.4L102.54-17.4 102.54-4.3Q102.54-3.3 103.84-3.3L103.84-3.3Q104.59-3.3 106.14-3.75L106.14-3.75ZM90.79-2.9L90.79-2.9Q93.74-2.8 98.04-4.75L98.04-4.75 98.04-8.2 95.54-8.35Q89.49-8.35 89.49-5.2L89.49-5.2Q89.49-3.7 90.79-2.9Z" opacity="1" transform="matrix(1,0,0,1,0,0)" fill="#ffffff" class="wordmark-text-0" data-fill-palette-color="primary" id="text-0"></path></svg></g></svg></g><g transform="matrix(1,0,0,1,0,78.80130125237191)"><svg viewBox="0 0 192 42.49776091081594" height="42.49776091081594" width="192"><g transform="matrix(1,0,0,1,0,0)"><svg width="192" viewBox="3.9 -35.5 207.82 46" height="42.49776091081594" data-palette-color="#13a5da"><path d="M3.9 0L3.9-35.05 13.3-35.05Q18.95-35.05 21.93-31.95 24.9-28.85 24.9-23.7L24.9-23.7 24.9-10Q24.9 0 14.3 0L14.3 0 3.9 0ZM22.1-24.2Q22.1-27.05 20.88-28.93 19.65-30.8 17.75-31.65 15.85-32.5 13.8-32.5L13.8-32.5 6.7-32.5 6.7-2.5 13.5-2.5Q17.15-2.5 19.63-3.93 22.1-5.35 22.1-9.5L22.1-9.5 22.1-24.2ZM57.5-1.75Q55.7-0.6 53.4 0 51.1 0.6 48.8 0.6L48.8 0.6Q45.1 0.6 42.93-1.23 40.75-3.05 40.75-6.7L40.75-6.7 40.75-16.95Q40.75-21 43.28-23.25 45.8-25.5 49.95-25.5L49.95-25.5Q54.1-25.5 56.43-23.28 58.75-21.05 58.75-17.1L58.75-17.1 58.75-10.6 43.55-9.75 43.55-6.7Q43.55-4.3 45.1-3.1 46.65-1.9 49.15-1.9L49.15-1.9Q52.65-1.9 56.4-3.9L56.4-3.9 57.5-1.75ZM55.95-17.45Q55.95-20.55 54-21.83 52.05-23.1 49.9-23.1L49.9-23.1Q47.15-23.1 45.35-21.6 43.55-20.1 43.55-16.9L43.55-16.9 43.55-12.5 55.95-13.1 55.95-17.45ZM75.36-6.35Q75.66-4.1 77.61-2.98 79.56-1.85 81.96-1.85L81.96-1.85Q84.21-1.85 86.06-2.88 87.91-3.9 87.91-6.2L87.91-6.2Q87.91-7.7 87.03-8.68 86.16-9.65 84.86-10.25 83.56-10.85 81.36-11.55L81.36-11.55Q78.91-12.35 77.36-13.05 75.81-13.75 74.66-15.03 73.51-16.3 73.31-18.25L73.31-18.25 73.26-18.85Q73.26-20.5 74.18-22.08 75.11-23.65 77.03-24.65 78.96-25.65 81.86-25.65L81.86-25.65Q83.46-25.65 84.68-25.33 85.91-25 86.61-24.65 87.31-24.3 87.46-24.2L87.46-24.2 86.51-21.9Q86.36-22 85.78-22.3 85.21-22.6 84.16-22.9 83.11-23.2 81.86-23.2L81.86-23.2Q79.46-23.2 77.76-22.08 76.06-20.95 76.06-18.95L76.06-18.95Q76.06-17.05 77.61-16.05 79.16-15.05 82.36-14.05L82.36-14.05Q85.06-13.15 86.71-12.35 88.36-11.55 89.53-10.08 90.71-8.6 90.71-6.25L90.71-6.25Q90.71-3.25 88.48-1.25 86.26 0.75 81.96 0.75L81.96 0.75Q79.11 0.75 77.03-0.23 74.96-1.2 73.88-2.8 72.81-4.4 72.71-6.35L72.71-6.35 75.36-6.35ZM108.26-32.15Q107.61-32.15 107.09-32.68 106.56-33.2 106.56-33.85L106.56-33.85Q106.56-34.5 107.06-35 107.56-35.5 108.26-35.5L108.26-35.5Q108.96-35.5 109.44-35.02 109.91-34.55 109.91-33.85L109.91-33.85Q109.91-33.15 109.41-32.65 108.91-32.15 108.26-32.15L108.26-32.15ZM106.81 0L106.81-25.05 109.61-25.05 109.61 0 106.81 0ZM138.72 8.35Q142.02 7.1 142.02 3.15L142.02 3.15 142.02-3.05Q139.92 0.6 135.27 0.6L135.27 0.6Q130.87 0.6 128.42-1.8 125.97-4.2 125.97-8.8L125.97-8.8 125.97-16.25Q125.97-20.65 128.54-23.08 131.12-25.5 135.47-25.5L135.47-25.5Q140.12-25.5 142.22-22.15L142.22-22.15 142.02-25.05 144.82-25.05 144.82 3.2Q144.82 6.2 143.57 7.9 142.32 9.6 139.47 10.5L139.47 10.5 138.72 8.35ZM142.02-16.8Q142.02-19.9 140.02-21.43 138.02-22.95 135.27-22.95L135.27-22.95Q132.62-22.95 130.69-21.33 128.77-19.7 128.77-16L128.77-16 128.77-8.35Q128.77-5.2 130.54-3.6 132.32-2 135.27-2L135.27-2Q138.07-2 140.04-3.73 142.02-5.45 142.02-8.65L142.02-8.65 142.02-16.8ZM175.62 0L175.62-17.15Q175.62-20.2 173.84-21.58 172.07-22.95 169.27-22.95L169.27-22.95Q167.57-22.95 165.82-22.48 164.07-22 162.72-21.25L162.72-21.25 162.72 0 159.92 0 159.92-25.05 162.72-25.05 162.52-23.35Q163.72-24.4 165.57-24.93 167.42-25.45 169.42-25.45L169.42-25.45Q172.17-25.45 174.12-24.55L174.12-24.55Q176.12-23.65 177.24-21.85 178.37-20.05 178.37-17.3L178.37-17.3 178.37 0 175.62 0ZM196.37-6.35Q196.67-4.1 198.62-2.98 200.57-1.85 202.97-1.85L202.97-1.85Q205.22-1.85 207.07-2.88 208.92-3.9 208.92-6.2L208.92-6.2Q208.92-7.7 208.05-8.68 207.17-9.65 205.87-10.25 204.57-10.85 202.37-11.55L202.37-11.55Q199.92-12.35 198.37-13.05 196.82-13.75 195.67-15.03 194.52-16.3 194.32-18.25L194.32-18.25 194.27-18.85Q194.27-20.5 195.2-22.08 196.12-23.65 198.05-24.65 199.97-25.65 202.87-25.65L202.87-25.65Q204.47-25.65 205.7-25.33 206.92-25 207.62-24.65 208.32-24.3 208.47-24.2L208.47-24.2 207.52-21.9Q207.37-22 206.8-22.3 206.22-22.6 205.17-22.9 204.12-23.2 202.87-23.2L202.87-23.2Q200.47-23.2 198.77-22.08 197.07-20.95 197.07-18.95L197.07-18.95Q197.07-17.05 198.62-16.05 200.17-15.05 203.37-14.05L203.37-14.05Q206.07-13.15 207.72-12.35 209.37-11.55 210.55-10.08 211.72-8.6 211.72-6.25L211.72-6.25Q211.72-3.25 209.5-1.25 207.27 0.75 202.97 0.75L202.97 0.75Q200.12 0.75 198.05-0.23 195.97-1.2 194.9-2.8 193.82-4.4 193.72-6.35L193.72-6.35 196.37-6.35Z" opacity="1" transform="matrix(1,0,0,1,0,0)" fill="#ffffff" class="slogan-text-1" data-fill-palette-color="secondary" id="text-1"></path></svg></g></svg></g></svg></g></svg></g><g transform="matrix(1,0,0,1,36.672,0)"><svg viewBox="0 0 118.656 118.82599936287998" height="118.82599936287998" width="118.656"><g><svg xmlns="http://www.w3.org/2000/svg" data-name="Layer 3" viewBox="1.0884198725808247 0.9097186760416358 61.91158012741918 62.00028132395836" x="0" y="0" height="118.82599936287998" width="118.656" class="icon-icon-0" data-fill-palette-color="accent" id="icon-0"><path d="M58 8.91H45v-4h6.18a3 3 0 1 0 0-2H44a1 1 0 0 0-1 1v5H41v-5a1 1 0 0 0-1-1H32.82a3 3 0 1 0 0 2H39v4H20.8A9.82 9.82 0 0 0 18 3.74 10 10 0 1 0 5 18.9v1a3 3 0 0 0 2 2.81v3.19a3 3 0 0 0 3 3h2a3 3 0 0 0 3-3V22.72a3 3 0 0 0 2-2.81v-1a10 10 0 0 0 4-8H39v2H26a1 1 0 0 0-1 1v22a1 1 0 0 0 1 1H58a1 1 0 0 0 1-1v-22a1 1 0 0 0-1-1H45v-2H58a3 3 0 0 1 3 3v25H7v-9H5v14a5 5 0 0 0 5 5H27v6H25a4 4 0 0 0-4 4v3a1 1 0 0 0 1 1H46a1 1 0 0 0 1-1v-3a4 4 0 0 0-4-4H41v-6H58a5 5 0 0 0 5-5v-30A5 5 0 0 0 58 8.91Zm-4-6a1 1 0 1 1-1 1A1 1 0 0 1 54 2.91Zm-24 2a1 1 0 1 1 1-1A1 1 0 0 1 30 4.91Zm-18 22H10a1 1 0 0 1-1-1v-3h4v3A1 1 0 0 1 12 26.91Zm-2-12a1 1 0 1 1 1 1A1 1 0 0 1 10 14.91Zm5.44 2.65a1 1 0 0 0-0.44 0.83v1.52a1 1 0 0 1-1 1H12V17.72a3 3 0 1 0-2 0v3.19H8a1 1 0 0 1-1-1V18.39a1 1 0 0 0-0.44-0.83A8 8 0 0 1 10.77 2.91H11a8 8 0 0 1 4.44 14.65ZM27 34.91v-12H57v12Zm30-14H27v-6H57Zm-14-8H41v-2h2Zm2 46v2H23v-2a2 2 0 0 1 2-2H43A2 2 0 0 1 45 58.91Zm-6-4H29v-6H39Zm19-8H10a3 3 0 0 1-3-3v-3H61v3A3 3 0 0 1 58 46.91Z" fill="#ffffff" data-fill-palette-color="accent"></path><rect x="10" y="6.91" width="2" height="3" fill="#ffffff" data-fill-palette-color="accent"></rect><rect x="6" y="8.49" width="2" height="2.83" transform="translate(-4.95 7.85) rotate(-45)" fill="#ffffff" data-fill-palette-color="accent"></rect><rect x="13.59" y="8.91" width="2.83" height="2" transform="translate(-2.61 13.51) rotate(-45)" fill="#ffffff" data-fill-palette-color="accent"></rect><rect x="57" y="42.91" width="2" height="2" fill="#ffffff" data-fill-palette-color="accent"></rect><rect x="53" y="42.91" width="2" height="2" fill="#ffffff" data-fill-palette-color="accent"></rect><rect x="53" y="16.91" width="2" height="2" fill="#ffffff" data-fill-palette-color="accent"></rect><rect x="49" y="16.91" width="2" height="2" fill="#ffffff" data-fill-palette-color="accent"></rect><rect x="45" y="16.91" width="2" height="2" fill="#ffffff" data-fill-palette-color="accent"></rect><path d="M37.29 24.2l-4 4a1 1 0 0 0 0 1.41l4 4 1.42-1.41-3.3-3.29 3.3-3.3Z" fill="#ffffff" data-fill-palette-color="accent"></path><path d="M46.71 24.2l-1.42 1.41 3.3 3.3-3.3 3.29 1.42 1.41 4-4a1 1 0 0 0 0-1.41Z" fill="#ffffff" data-fill-palette-color="accent"></path><rect x="37.53" y="27.91" width="8.94" height="2" transform="translate(-2.64 53.54) rotate(-63.43)" fill="#ffffff" data-fill-palette-color="accent"></rect></svg></g></svg></g><g></g></svg></g></svg></g></svg></g></svg></g><defs></defs></svg><rect width="320" height="360" fill="none" stroke="none" visibility="hidden"></rect></g></svg></g></svg>