<svg xmlns="http://www.w3.org/2000/svg" version="1.1" xmlns:xlink="http://www.w3.org/1999/xlink" xmlns:svgjs="http://svgjs.dev/svgjs" width="1500" height="1500" viewBox="0 0 1500 1500"><rect width="1500" height="1500" fill="#ffffff"></rect><g transform="matrix(0.6666666666666666,0,0,0.6666666666666666,249.39393939393938,438.58582118758443)"><svg viewBox="0 0 396 247" data-background-color="#ffffff" preserveAspectRatio="xMidYMid meet" height="935" width="1500" xmlns="http://www.w3.org/2000/svg" xmlns:xlink="http://www.w3.org/1999/xlink"><g id="tight-bounds" transform="matrix(1,0,0,1,0.2400000000000091,-0.09995000000000687)"><svg viewBox="0 0 395.52 247.2" height="247.2" width="395.52"><g><svg></svg></g><g><svg viewBox="0 0 395.52 247.2" height="247.2" width="395.52"><mask id="e67759b7-700d-4adc-9473-c8cfe587bc03"><rect width="395.52" height="247.2" fill="white"></rect><g transform="matrix(1,0,0,1,95.29074119521663,37.08)" id="clone"><svg viewBox="0 0 204.93851760956673 173.04" height="173.04" width="204.93851760956673"><g><svg viewBox="0 0 395.52 333.9576259177797" height="173.04" width="204.93851760956673"><g transform="matrix(1,0,0,1,0,114.21163602644391)"><svg viewBox="0 0 395.52 219.74598989133577" height="219.74598989133577" width="395.52"><g id="SvgjsG1115"><svg viewBox="0 0 395.52 219.74598989133577" height="219.74598989133577" width="395.52" id="SvgjsSvg1114"><g><svg viewBox="0 0 395.52 132.9751537515375" height="132.9751537515375" width="395.52"><g transform="matrix(1,0,0,1,0,0)"><svg width="395.52" viewBox="0.8999999999999999 -38.5 122.94 42" height="132.9751537515375" data-palette-color="#e2e0e0"><path d="M17.55 0L5.1 0Q4.6 0 4.25-0.35 3.9-0.7 3.9-1.2L3.9-1.2 3.9-33.75Q3.9-34.3 4.25-34.65 4.6-35 5.1-35L5.1-35 17.3-35Q22.35-35 25.63-33.45 28.9-31.9 30.58-28.85 32.25-25.8 32.3-21.4L32.3-21.4Q32.4-19.2 32.4-17.5 32.4-15.8 32.3-13.65L32.3-13.65Q32.2-9 30.6-5.98 29-2.95 25.78-1.48 22.55 0 17.55 0L17.55 0ZM10.85-29.25L10.85-5.75 17.3-5.75Q20.1-5.75 21.85-6.55 23.6-7.35 24.43-9.13 25.25-10.9 25.3-13.8L25.3-13.8Q25.35-15.3 25.38-16.43 25.4-17.55 25.38-18.68 25.35-19.8 25.3-21.25L25.3-21.25Q25.2-25.35 23.25-27.3 21.3-29.25 17.05-29.25L17.05-29.25 10.85-29.25ZM49.95 0.5L49.95 0.5Q45.95 0.5 43.22-0.9 40.5-2.3 39.07-4.85 37.65-7.4 37.45-10.8L37.45-10.8Q37.4-11.7 37.4-13 37.4-14.3 37.45-15.2L37.45-15.2Q37.65-18.65 39.12-21.18 40.6-23.7 43.32-25.1 46.05-26.5 49.95-26.5L49.95-26.5Q53.85-26.5 56.57-25.1 59.3-23.7 60.77-21.18 62.25-18.65 62.45-15.2L62.45-15.2Q62.5-14.3 62.5-13 62.5-11.7 62.45-10.8L62.45-10.8Q62.25-7.4 60.82-4.85 59.4-2.3 56.67-0.9 53.95 0.5 49.95 0.5ZM49.95-4.45L49.95-4.45Q52.6-4.45 54.05-6.13 55.5-7.8 55.65-11.05L55.65-11.05Q55.7-11.8 55.7-13 55.7-14.2 55.65-14.95L55.65-14.95Q55.5-18.2 54.05-19.88 52.6-21.55 49.95-21.55L49.95-21.55Q47.3-21.55 45.85-19.88 44.4-18.2 44.25-14.95L44.25-14.95Q44.2-14.2 44.2-13 44.2-11.8 44.25-11.05L44.25-11.05Q44.4-7.8 45.85-6.13 47.3-4.45 49.95-4.45ZM82.45 0.5L82.45 0.5Q79.55 0.5 77.62-0.5 75.7-1.5 74.45-3.05L74.45-3.05 74.45-1.2Q74.45-0.7 74.12-0.35 73.8 0 73.25 0L73.25 0 69.3 0Q68.8 0 68.45-0.35 68.09-0.7 68.09-1.2L68.09-1.2 68.09-34.3Q68.09-34.8 68.45-35.15 68.8-35.5 69.3-35.5L69.3-35.5 73.55-35.5Q74.09-35.5 74.42-35.15 74.75-34.8 74.75-34.3L74.75-34.3 74.75-23.2Q76-24.65 77.87-25.58 79.75-26.5 82.45-26.5L82.45-26.5Q85.09-26.5 87.05-25.6 89-24.7 90.32-23.08 91.65-21.45 92.34-19.3 93.05-17.15 93.09-14.65L93.09-14.65Q93.15-13.75 93.15-13.03 93.15-12.3 93.09-11.4L93.09-11.4Q93-8.8 92.3-6.63 91.59-4.45 90.3-2.85 89-1.25 87.05-0.38 85.09 0.5 82.45 0.5ZM80.59-4.85L80.59-4.85Q82.75-4.85 83.95-5.78 85.15-6.7 85.7-8.2 86.25-9.7 86.34-11.5L86.34-11.5Q86.4-13 86.34-14.5L86.34-14.5Q86.25-16.3 85.7-17.8 85.15-19.3 83.95-20.23 82.75-21.15 80.59-21.15L80.59-21.15Q78.59-21.15 77.34-20.25 76.09-19.35 75.45-17.98 74.8-16.6 74.75-15.1L74.75-15.1Q74.7-14.2 74.7-13.18 74.7-12.15 74.75-11.25L74.75-11.25Q74.84-9.7 75.42-8.22 76-6.75 77.27-5.8 78.55-4.85 80.59-4.85ZM106.24 0.5L106.24 0.5Q103.64 0.5 101.54-0.53 99.44-1.55 98.22-3.28 96.99-5 96.99-7.15L96.99-7.15Q96.99-10.65 99.84-12.73 102.69-14.8 107.29-15.5L107.29-15.5 114.14-16.5 114.14-17.55Q114.14-19.65 113.09-20.8 112.04-21.95 109.49-21.95L109.49-21.95Q107.69-21.95 106.57-21.23 105.44-20.5 104.89-19.3L104.89-19.3Q104.49-18.65 103.74-18.65L103.74-18.65 99.79-18.65Q99.24-18.65 98.97-18.95 98.69-19.25 98.69-19.75L98.69-19.75Q98.74-20.55 99.37-21.7 99.99-22.85 101.27-23.93 102.54-25 104.59-25.75 106.64-26.5 109.54-26.5L109.54-26.5Q112.69-26.5 114.87-25.73 117.04-24.95 118.34-23.65 119.64-22.35 120.24-20.6 120.84-18.85 120.84-16.9L120.84-16.9 120.84-1.2Q120.84-0.7 120.49-0.35 120.14 0 119.64 0L119.64 0 115.59 0Q115.04 0 114.72-0.35 114.39-0.7 114.39-1.2L114.39-1.2 114.39-3.15Q113.74-2.25 112.64-1.4 111.54-0.55 109.97-0.03 108.39 0.5 106.24 0.5ZM107.94-4.25L107.94-4.25Q109.69-4.25 111.12-5 112.54-5.75 113.37-7.33 114.19-8.9 114.19-11.3L114.19-11.3 114.19-12.35 109.19-11.55Q106.24-11.1 104.79-10.1 103.34-9.1 103.34-7.65L103.34-7.65Q103.34-6.55 104.02-5.78 104.69-5 105.74-4.63 106.79-4.25 107.94-4.25Z" opacity="1" transform="matrix(1,0,0,1,0,0)" fill="black" class="wordmark-text-0" id="SvgjsPath1113" stroke-width="5" stroke="black" stroke-linejoin="round"></path></svg></g></svg></g><g transform="matrix(1,0,0,1,77.08932,150.01304614415744)"><svg viewBox="0 0 241.34135999999998 69.73294374717834" height="69.73294374717834" width="241.34135999999998"><g transform="matrix(1,0,0,1,0,0)"><svg width="241.34135999999998" viewBox="1.2999999999999998 -39.8 178.19 52.199999999999996" height="69.73294374717834" data-palette-color="#80898c"><path d="M32.75-17.35L32.75-17.35Q32.75-12.85 31.35-9.53 29.95-6.2 27.4-4.03 24.85-1.85 21.3-0.78 17.75 0.3 13.5 0.3L13.5 0.3Q11.4 0.3 8.88 0.13 6.35-0.05 4.3-0.55L4.3-0.55 4.3-34.15Q6.35-34.65 8.88-34.83 11.4-35 13.5-35L13.5-35Q17.75-35 21.3-33.93 24.85-32.85 27.4-30.68 29.95-28.5 31.35-25.18 32.75-21.85 32.75-17.35ZM13.9-3.95L13.9-3.95Q20.8-3.95 24.2-7.48 27.6-11 27.6-17.35L27.6-17.35Q27.6-23.7 24.2-27.23 20.8-30.75 13.9-30.75L13.9-30.75Q11.85-30.75 10.73-30.7 9.6-30.65 9.15-30.6L9.15-30.6 9.15-4.1Q9.6-4.05 10.73-4 11.85-3.95 13.9-3.95ZM38.2-12.95L38.2-12.95Q38.2-16.4 39.2-18.98 40.2-21.55 41.85-23.25 43.5-24.95 45.65-25.8 47.8-26.65 50.05-26.65L50.05-26.65Q55.3-26.65 58.1-23.38 60.9-20.1 60.9-13.4L60.9-13.4Q60.9-13.1 60.9-12.63 60.9-12.15 60.85-11.75L60.85-11.75 43.05-11.75Q43.35-7.7 45.4-5.6 47.45-3.5 51.8-3.5L51.8-3.5Q54.25-3.5 55.92-3.93 57.6-4.35 58.45-4.75L58.45-4.75 59.1-0.85Q58.25-0.4 56.12 0.1 54 0.6 51.3 0.6L51.3 0.6Q47.9 0.6 45.42-0.43 42.95-1.45 41.35-3.25 39.75-5.05 38.97-7.53 38.2-10 38.2-12.95ZM43.15-15.5L56.05-15.5Q56.1-18.65 54.47-20.68 52.85-22.7 50-22.7L50-22.7Q48.4-22.7 47.17-22.08 45.95-21.45 45.1-20.45 44.25-19.45 43.77-18.15 43.3-16.85 43.15-15.5L43.15-15.5ZM73.65-3.35L73.65-3.35Q76.5-3.35 77.87-4.1 79.25-4.85 79.25-6.5L79.25-6.5Q79.25-8.2 77.9-9.2 76.55-10.2 73.45-11.45L73.45-11.45Q71.95-12.05 70.57-12.68 69.2-13.3 68.2-14.15 67.2-15 66.59-16.2 66-17.4 66-19.15L66-19.15Q66-22.6 68.55-24.63 71.09-26.65 75.5-26.65L75.5-26.65Q76.59-26.65 77.7-26.53 78.8-26.4 79.75-26.23 80.7-26.05 81.42-25.85 82.15-25.65 82.55-25.5L82.55-25.5 81.7-21.5Q80.95-21.9 79.34-22.33 77.75-22.75 75.5-22.75L75.5-22.75Q73.55-22.75 72.09-21.98 70.65-21.2 70.65-19.55L70.65-19.55Q70.65-18.7 70.97-18.05 71.3-17.4 71.97-16.88 72.65-16.35 73.65-15.9 74.65-15.45 76.05-14.95L76.05-14.95Q77.9-14.25 79.34-13.58 80.8-12.9 81.82-12 82.84-11.1 83.4-9.83 83.95-8.55 83.95-6.7L83.95-6.7Q83.95-3.1 81.27-1.25 78.59 0.6 73.65 0.6L73.65 0.6Q70.2 0.6 68.25 0.03 66.3-0.55 65.59-0.85L65.59-0.85 66.45-4.85Q67.25-4.55 69-3.95 70.75-3.35 73.65-3.35ZM94.54-26L94.54 0 89.89 0 89.89-26 94.54-26ZM92.19-30.7L92.19-30.7Q90.94-30.7 90.07-31.53 89.19-32.35 89.19-33.75L89.19-33.75Q89.19-35.15 90.07-35.98 90.94-36.8 92.19-36.8L92.19-36.8Q93.44-36.8 94.32-35.98 95.19-35.15 95.19-33.75L95.19-33.75Q95.19-32.35 94.32-31.53 93.44-30.7 92.19-30.7ZM118.84-1.5L118.84-2.6Q118.24-2.2 116.52-1.58 114.79-0.95 112.49-0.95L112.49-0.95Q110.14-0.95 108.07-1.7 105.99-2.45 104.44-4.03 102.89-5.6 101.99-7.95 101.09-10.3 101.09-13.55L101.09-13.55Q101.09-16.4 101.94-18.78 102.79-21.15 104.42-22.88 106.04-24.6 108.39-25.58 110.74-26.55 113.69-26.55L113.69-26.55Q116.94-26.55 119.37-26.08 121.79-25.6 123.44-25.2L123.44-25.2 123.44-2Q123.44 4 120.34 6.7 117.24 9.4 110.94 9.4L110.94 9.4Q108.49 9.4 106.32 9 104.14 8.6 102.54 8.05L102.54 8.05 103.39 4Q104.79 4.55 106.82 4.98 108.84 5.4 111.04 5.4L111.04 5.4Q115.19 5.4 117.02 3.75 118.84 2.1 118.84-1.5L118.84-1.5ZM118.79-6.7L118.79-21.9Q118.09-22.1 116.92-22.28 115.74-22.45 113.74-22.45L113.74-22.45Q109.99-22.45 107.97-20 105.94-17.55 105.94-13.5L105.94-13.5Q105.94-11.25 106.52-9.65 107.09-8.05 108.07-7 109.04-5.95 110.32-5.45 111.59-4.95 112.94-4.95L112.94-4.95Q114.79-4.95 116.34-5.48 117.89-6 118.79-6.7L118.79-6.7ZM131.44 0L131.44-25.25Q133.04-25.65 135.69-26.1 138.34-26.55 141.79-26.55L141.79-26.55Q144.89-26.55 146.94-25.68 148.99-24.8 150.21-23.23 151.44-21.65 151.94-19.45 152.44-17.25 152.44-14.6L152.44-14.6 152.44 0 147.79 0 147.79-13.6Q147.79-16 147.46-17.7 147.14-19.4 146.39-20.45 145.64-21.5 144.39-21.98 143.14-22.45 141.29-22.45L141.29-22.45Q140.54-22.45 139.74-22.4 138.94-22.35 138.21-22.28 137.49-22.2 136.91-22.1 136.34-22 136.09-21.95L136.09-21.95 136.09 0 131.44 0ZM166.19-3.35L166.19-3.35Q169.04-3.35 170.41-4.1 171.79-4.85 171.79-6.5L171.79-6.5Q171.79-8.2 170.44-9.2 169.09-10.2 165.99-11.45L165.99-11.45Q164.49-12.05 163.11-12.68 161.74-13.3 160.74-14.15 159.74-15 159.14-16.2 158.54-17.4 158.54-19.15L158.54-19.15Q158.54-22.6 161.09-24.63 163.64-26.65 168.04-26.65L168.04-26.65Q169.14-26.65 170.24-26.53 171.34-26.4 172.29-26.23 173.24-26.05 173.96-25.85 174.69-25.65 175.09-25.5L175.09-25.5 174.24-21.5Q173.49-21.9 171.89-22.33 170.29-22.75 168.04-22.75L168.04-22.75Q166.09-22.75 164.64-21.98 163.19-21.2 163.19-19.55L163.19-19.55Q163.19-18.7 163.51-18.05 163.84-17.4 164.51-16.88 165.19-16.35 166.19-15.9 167.19-15.45 168.59-14.95L168.59-14.95Q170.44-14.25 171.89-13.58 173.34-12.9 174.36-12 175.39-11.1 175.94-9.83 176.49-8.55 176.49-6.7L176.49-6.7Q176.49-3.1 173.81-1.25 171.14 0.6 166.19 0.6L166.19 0.6Q162.74 0.6 160.79 0.03 158.84-0.55 158.14-0.85L158.14-0.85 158.99-4.85Q159.79-4.55 161.54-3.95 163.29-3.35 166.19-3.35Z" opacity="1" transform="matrix(1,0,0,1,0,0)" fill="black" class="slogan-text-1" id="SvgjsPath1112" stroke-width="5" stroke="black" stroke-linejoin="round"></path></svg></g></svg></g></svg></g></svg></g><g transform="matrix(1,0,0,1,75.54432000000001,0)"><svg viewBox="0 0 244.43135999999996 97.17374363382399" height="97.17374363382399" width="244.43135999999996"><g><svg xmlns="http://www.w3.org/2000/svg" data-name="Layer 1" viewBox="4 31 93.07 37" x="0" y="0" height="97.17374363382399" width="244.43135999999996" class="icon-icon-0" data-fill-palette-color="accent" id="SvgjsSvg1111"><path d="M56.65 39.43a1.06 1.06 0 0 1-0.51-0.14 10.39 10.39 0 0 0-2.8-1.17 1 1 0 0 1-0.73-1.21 1 1 0 0 1 1.22-0.73 12.5 12.5 0 0 1 3.34 1.39 1 1 0 0 1 0.34 1.37A1 1 0 0 1 56.65 39.43Z" fill="black" stroke-width="5" stroke="black" stroke-linejoin="round"></path><path d="M53.58 60.52a1 1 0 0 1-0.24-2 10.7 10.7 0 0 0 2.8-1.16 1 1 0 1 1 1 1.71 12.19 12.19 0 0 1-3.34 1.39Z" fill="black" stroke-width="5" stroke="black" stroke-linejoin="round"></path><path d="M40.85 55.24a1 1 0 0 1-0.86-0.49 12.06 12.06 0 0 1-1.39-3.34 1 1 0 0 1 0.73-1.21 1 1 0 0 1 1.21 0.73 10.17 10.17 0 0 0 1.16 2.79 1 1 0 0 1-0.34 1.38A1.06 1.06 0 0 1 40.85 55.24Z" fill="black" stroke-width="5" stroke="black" stroke-linejoin="round"></path><path d="M47.92 60.52l-0.24 0a12.25 12.25 0 0 1-3.35-1.39 1 1 0 0 1 1-1.71 10.7 10.7 0 0 0 2.8 1.16 1 1 0 0 1-0.24 2Z" fill="black" stroke-width="5" stroke="black" stroke-linejoin="round"></path><path d="M60.66 55.24a1.07 1.07 0 0 1-0.52-0.14 1 1 0 0 1-0.34-1.38A9.87 9.87 0 0 0 61 50.93a1 1 0 0 1 1.22-0.73 1 1 0 0 1 0.72 1.21 12.34 12.34 0 0 1-1.38 3.34A1 1 0 0 1 60.66 55.24Z" fill="black" stroke-width="5" stroke="black" stroke-linejoin="round"></path><path d="M61.93 46.51a1 1 0 0 1-1-0.76A10.06 10.06 0 0 0 59.8 43a1 1 0 0 1 1.72-1 12.47 12.47 0 0 1 1.38 3.34 1 1 0 0 1-0.72 1.22A1.07 1.07 0 0 1 61.93 46.51Z" fill="black" stroke-width="5" stroke="black" stroke-linejoin="round"></path><path d="M44.85 39.43a1 1 0 0 1-0.86-0.49 1 1 0 0 1 0.34-1.37 12.57 12.57 0 0 1 3.35-1.39 1 1 0 0 1 0.48 1.94 10.39 10.39 0 0 0-2.8 1.17A1 1 0 0 1 44.85 39.43Z" fill="black" stroke-width="5" stroke="black" stroke-linejoin="round"></path><path d="M39.57 46.51a1 1 0 0 1-0.24 0 1 1 0 0 1-0.73-1.22A12.19 12.19 0 0 1 40 41.92a1 1 0 1 1 1.71 1 10.37 10.37 0 0 0-1.16 2.8A1 1 0 0 1 39.57 46.51Z" fill="black" stroke-width="5" stroke="black" stroke-linejoin="round"></path><path d="M50.75 57a8.71 8.71 0 1 1 8.7-8.7A8.71 8.71 0 0 1 50.75 57Zm0-15.41a6.71 6.71 0 1 0 6.7 6.71A6.72 6.72 0 0 0 50.75 41.63Z" fill="black" stroke-width="5" stroke="black" stroke-linejoin="round"></path><path d="M53.58 38.15a1 1 0 0 1-1-1V33H48.92v4.17a1 1 0 0 1-2 0V32a1 1 0 0 1 1-1h5.66a1 1 0 0 1 1 1v5.17A1 1 0 0 1 53.58 38.15Z" fill="black" stroke-width="5" stroke="black" stroke-linejoin="round"></path><path d="M60.66 43.44A1 1 0 0 1 60 41.73l3-3-2.59-2.59-3 3a1 1 0 0 1-1.41 0 1 1 0 0 1 0-1.42l3.66-3.66a1 1 0 0 1 1.42 0l4 4a1 1 0 0 1 0 1.42l-3.66 3.66A1 1 0 0 1 60.66 43.44Z" fill="black" stroke-width="5" stroke="black" stroke-linejoin="round"></path><path d="M67.11 52.17H61.93a1 1 0 1 1 0-2h4.18V46.51H61.93a1 1 0 0 1 0-2h5.18a1 1 0 0 1 1 1v5.66a1 1 0 0 1-0.29 0.71A1 1 0 0 1 67.11 52.17Z" fill="black" stroke-width="5" stroke="black" stroke-linejoin="round"></path><path d="M60.32 62.91a1 1 0 0 1-0.71-0.3L56 59a1 1 0 0 1 1.41-1.41l3 3 2.59-2.58-3-3a1 1 0 1 1 1.42-1.42L65 57.2a1 1 0 0 1 0 1.41l-4 4A1 1 0 0 1 60.32 62.91Z" fill="black" stroke-width="5" stroke="black" stroke-linejoin="round"></path><path d="M47.92 65.7a1 1 0 0 1-1-1V59.52a1 1 0 1 1 2 0V63.7h3.66V59.52a1 1 0 1 1 2 0V64.7a1 1 0 0 1-1 1Z" fill="black" stroke-width="5" stroke="black" stroke-linejoin="round"></path><path d="M41.18 62.91a1 1 0 0 1-0.7-0.3l-4-4a1 1 0 0 1 0-1.41l3.66-3.67a1 1 0 0 1 1.41 0 1 1 0 0 1 0 1.42l-2.95 3 2.58 2.58 3-3a1 1 0 0 1 1.42 0 1 1 0 0 1 0 1.41l-3.67 3.66A1 1 0 0 1 41.18 62.91Z" fill="black" stroke-width="5" stroke="black" stroke-linejoin="round"></path><path d="M39.57 52.17H34.39a1 1 0 0 1-1-1V45.51a1 1 0 0 1 0.29-0.71 1 1 0 0 1 0.71-0.29h5.18a1 1 0 0 1 0 2H35.39v3.66h4.18a1 1 0 1 1 0 2Z" fill="black" stroke-width="5" stroke="black" stroke-linejoin="round"></path><path d="M40.84 43.44a1 1 0 0 1-0.7-0.3l-3.66-3.66a1 1 0 0 1 0-1.42l4-4a1 1 0 0 1 1.41 0l3.67 3.66a1 1 0 0 1-1.42 1.42l-3-3L38.6 38.77l2.95 3a1 1 0 0 1 0 1.41A1 1 0 0 1 40.84 43.44Z" fill="black" stroke-width="5" stroke="black" stroke-linejoin="round"></path><path d="M4 48.74L34.5 33v4.54L8.77 50.45v0.13L34.5 63.48V68L4 52.29Z" fill="black" stroke-width="5" stroke="black" stroke-linejoin="round"></path><path d="M97.07 52.36L66.53 68V63.48l25.93-12.9v-0.13L66.53 37.55V33L97.07 48.67Z" fill="black" stroke-width="5" stroke="black" stroke-linejoin="round"></path></svg></g></svg></g><g></g></svg></g></svg></g></mask><g mask="url(#e67759b7-700d-4adc-9473-c8cfe587bc03)"><g><path transform="translate(69.56914,247.2) scale(7.06286,7.06286)" d="M17.55 0h-12.45c-0.333 0-0.617-0.117-0.85-0.35-0.233-0.233-0.35-0.517-0.35-0.85v0-32.55c0-0.367 0.117-0.667 0.35-0.9 0.233-0.233 0.517-0.35 0.85-0.35v0h12.2c3.367 0 6.143 0.517 8.33 1.55 2.18 1.033 3.83 2.567 4.95 4.6 1.113 2.033 1.687 4.517 1.72 7.45v0c0.067 1.467 0.1 2.767 0.1 3.9 0 1.133-0.033 2.417-0.1 3.85v0c-0.067 3.1-0.633 5.657-1.7 7.67-1.067 2.02-2.673 3.52-4.82 4.5-2.153 0.987-4.897 1.48-8.23 1.48zM10.85-29.25v23.5h6.45c1.867 0 3.383-0.267 4.55-0.8 1.167-0.533 2.027-1.393 2.58-2.58 0.547-1.18 0.837-2.737 0.87-4.67v0c0.033-1 0.06-1.877 0.08-2.63 0.013-0.747 0.013-1.497 0-2.25-0.02-0.747-0.047-1.603-0.08-2.57v0c-0.067-2.733-0.75-4.75-2.05-6.05-1.3-1.3-3.367-1.95-6.2-1.95v0z" fill="#556970" fill-rule="nonzero" stroke="none" stroke-width="1" stroke-linecap="butt" stroke-linejoin="miter" stroke-miterlimit="10" stroke-dasharray="" stroke-dashoffset="0" font-family="none" font-weight="none" font-size="none" text-anchor="none" style="mix-blend-mode: normal" data-fill-palette-color="tertiary"></path></g></g><g transform="matrix(1,0,0,1,95.29074119521663,37.08)"><svg viewBox="0 0 204.93851760956673 173.04" height="173.04" width="204.93851760956673"><g><svg viewBox="0 0 395.52 333.9576259177797" height="173.04" width="204.93851760956673"><g transform="matrix(1,0,0,1,0,114.21163602644391)"><svg viewBox="0 0 395.52 219.74598989133577" height="219.74598989133577" width="395.52"><g id="textblocktransform"><svg viewBox="0 0 395.52 219.74598989133577" height="219.74598989133577" width="395.52" id="textblock"><g><svg viewBox="0 0 395.52 132.9751537515375" height="132.9751537515375" width="395.52"><g transform="matrix(1,0,0,1,0,0)"><svg width="395.52" viewBox="0.8999999999999999 -38.5 122.94 42" height="132.9751537515375" data-palette-color="#e2e0e0"><path d="M17.55 0L5.1 0Q4.6 0 4.25-0.35 3.9-0.7 3.9-1.2L3.9-1.2 3.9-33.75Q3.9-34.3 4.25-34.65 4.6-35 5.1-35L5.1-35 17.3-35Q22.35-35 25.63-33.45 28.9-31.9 30.58-28.85 32.25-25.8 32.3-21.4L32.3-21.4Q32.4-19.2 32.4-17.5 32.4-15.8 32.3-13.65L32.3-13.65Q32.2-9 30.6-5.98 29-2.95 25.78-1.48 22.55 0 17.55 0L17.55 0ZM10.85-29.25L10.85-5.75 17.3-5.75Q20.1-5.75 21.85-6.55 23.6-7.35 24.43-9.13 25.25-10.9 25.3-13.8L25.3-13.8Q25.35-15.3 25.38-16.43 25.4-17.55 25.38-18.68 25.35-19.8 25.3-21.25L25.3-21.25Q25.2-25.35 23.25-27.3 21.3-29.25 17.05-29.25L17.05-29.25 10.85-29.25ZM49.95 0.5L49.95 0.5Q45.95 0.5 43.22-0.9 40.5-2.3 39.07-4.85 37.65-7.4 37.45-10.8L37.45-10.8Q37.4-11.7 37.4-13 37.4-14.3 37.45-15.2L37.45-15.2Q37.65-18.65 39.12-21.18 40.6-23.7 43.32-25.1 46.05-26.5 49.95-26.5L49.95-26.5Q53.85-26.5 56.57-25.1 59.3-23.7 60.77-21.18 62.25-18.65 62.45-15.2L62.45-15.2Q62.5-14.3 62.5-13 62.5-11.7 62.45-10.8L62.45-10.8Q62.25-7.4 60.82-4.85 59.4-2.3 56.67-0.9 53.95 0.5 49.95 0.5ZM49.95-4.45L49.95-4.45Q52.6-4.45 54.05-6.13 55.5-7.8 55.65-11.05L55.65-11.05Q55.7-11.8 55.7-13 55.7-14.2 55.65-14.95L55.65-14.95Q55.5-18.2 54.05-19.88 52.6-21.55 49.95-21.55L49.95-21.55Q47.3-21.55 45.85-19.88 44.4-18.2 44.25-14.95L44.25-14.95Q44.2-14.2 44.2-13 44.2-11.8 44.25-11.05L44.25-11.05Q44.4-7.8 45.85-6.13 47.3-4.45 49.95-4.45ZM82.45 0.5L82.45 0.5Q79.55 0.5 77.62-0.5 75.7-1.5 74.45-3.05L74.45-3.05 74.45-1.2Q74.45-0.7 74.12-0.35 73.8 0 73.25 0L73.25 0 69.3 0Q68.8 0 68.45-0.35 68.09-0.7 68.09-1.2L68.09-1.2 68.09-34.3Q68.09-34.8 68.45-35.15 68.8-35.5 69.3-35.5L69.3-35.5 73.55-35.5Q74.09-35.5 74.42-35.15 74.75-34.8 74.75-34.3L74.75-34.3 74.75-23.2Q76-24.65 77.87-25.58 79.75-26.5 82.45-26.5L82.45-26.5Q85.09-26.5 87.05-25.6 89-24.7 90.32-23.08 91.65-21.45 92.34-19.3 93.05-17.15 93.09-14.65L93.09-14.65Q93.15-13.75 93.15-13.03 93.15-12.3 93.09-11.4L93.09-11.4Q93-8.8 92.3-6.63 91.59-4.45 90.3-2.85 89-1.25 87.05-0.38 85.09 0.5 82.45 0.5ZM80.59-4.85L80.59-4.85Q82.75-4.85 83.95-5.78 85.15-6.7 85.7-8.2 86.25-9.7 86.34-11.5L86.34-11.5Q86.4-13 86.34-14.5L86.34-14.5Q86.25-16.3 85.7-17.8 85.15-19.3 83.95-20.23 82.75-21.15 80.59-21.15L80.59-21.15Q78.59-21.15 77.34-20.25 76.09-19.35 75.45-17.98 74.8-16.6 74.75-15.1L74.75-15.1Q74.7-14.2 74.7-13.18 74.7-12.15 74.75-11.25L74.75-11.25Q74.84-9.7 75.42-8.22 76-6.75 77.27-5.8 78.55-4.85 80.59-4.85ZM106.24 0.5L106.24 0.5Q103.64 0.5 101.54-0.53 99.44-1.55 98.22-3.28 96.99-5 96.99-7.15L96.99-7.15Q96.99-10.65 99.84-12.73 102.69-14.8 107.29-15.5L107.29-15.5 114.14-16.5 114.14-17.55Q114.14-19.65 113.09-20.8 112.04-21.95 109.49-21.95L109.49-21.95Q107.69-21.95 106.57-21.23 105.44-20.5 104.89-19.3L104.89-19.3Q104.49-18.65 103.74-18.65L103.74-18.65 99.79-18.65Q99.24-18.65 98.97-18.95 98.69-19.25 98.69-19.75L98.69-19.75Q98.74-20.55 99.37-21.7 99.99-22.85 101.27-23.93 102.54-25 104.59-25.75 106.64-26.5 109.54-26.5L109.54-26.5Q112.69-26.5 114.87-25.73 117.04-24.95 118.34-23.65 119.64-22.35 120.24-20.6 120.84-18.85 120.84-16.9L120.84-16.9 120.84-1.2Q120.84-0.7 120.49-0.35 120.14 0 119.64 0L119.64 0 115.59 0Q115.04 0 114.72-0.35 114.39-0.7 114.39-1.2L114.39-1.2 114.39-3.15Q113.74-2.25 112.64-1.4 111.54-0.55 109.97-0.03 108.39 0.5 106.24 0.5ZM107.94-4.25L107.94-4.25Q109.69-4.25 111.12-5 112.54-5.75 113.37-7.33 114.19-8.9 114.19-11.3L114.19-11.3 114.19-12.35 109.19-11.55Q106.24-11.1 104.79-10.1 103.34-9.1 103.34-7.65L103.34-7.65Q103.34-6.55 104.02-5.78 104.69-5 105.74-4.63 106.79-4.25 107.94-4.25Z" opacity="1" transform="matrix(1,0,0,1,0,0)" fill="#e2e0e0" class="wordmark-text-0" data-fill-palette-color="primary" id="text-0"></path></svg></g></svg></g><g transform="matrix(1,0,0,1,77.08932,150.01304614415744)"><svg viewBox="0 0 241.34135999999998 69.73294374717834" height="69.73294374717834" width="241.34135999999998"><g transform="matrix(1,0,0,1,0,0)"><svg width="241.34135999999998" viewBox="1.2999999999999998 -39.8 178.19 52.199999999999996" height="69.73294374717834" data-palette-color="#80898c"><path d="M32.75-17.35L32.75-17.35Q32.75-12.85 31.35-9.53 29.95-6.2 27.4-4.03 24.85-1.85 21.3-0.78 17.75 0.3 13.5 0.3L13.5 0.3Q11.4 0.3 8.88 0.13 6.35-0.05 4.3-0.55L4.3-0.55 4.3-34.15Q6.35-34.65 8.88-34.83 11.4-35 13.5-35L13.5-35Q17.75-35 21.3-33.93 24.85-32.85 27.4-30.68 29.95-28.5 31.35-25.18 32.75-21.85 32.75-17.35ZM13.9-3.95L13.9-3.95Q20.8-3.95 24.2-7.48 27.6-11 27.6-17.35L27.6-17.35Q27.6-23.7 24.2-27.23 20.8-30.75 13.9-30.75L13.9-30.75Q11.85-30.75 10.73-30.7 9.6-30.65 9.15-30.6L9.15-30.6 9.15-4.1Q9.6-4.05 10.73-4 11.85-3.95 13.9-3.95ZM38.2-12.95L38.2-12.95Q38.2-16.4 39.2-18.98 40.2-21.55 41.85-23.25 43.5-24.95 45.65-25.8 47.8-26.65 50.05-26.65L50.05-26.65Q55.3-26.65 58.1-23.38 60.9-20.1 60.9-13.4L60.9-13.4Q60.9-13.1 60.9-12.63 60.9-12.15 60.85-11.75L60.85-11.75 43.05-11.75Q43.35-7.7 45.4-5.6 47.45-3.5 51.8-3.5L51.8-3.5Q54.25-3.5 55.92-3.93 57.6-4.35 58.45-4.75L58.45-4.75 59.1-0.85Q58.25-0.4 56.12 0.1 54 0.6 51.3 0.6L51.3 0.6Q47.9 0.6 45.42-0.43 42.95-1.45 41.35-3.25 39.75-5.05 38.97-7.53 38.2-10 38.2-12.95ZM43.15-15.5L56.05-15.5Q56.1-18.65 54.47-20.68 52.85-22.7 50-22.7L50-22.7Q48.4-22.7 47.17-22.08 45.95-21.45 45.1-20.45 44.25-19.45 43.77-18.15 43.3-16.85 43.15-15.5L43.15-15.5ZM73.65-3.35L73.65-3.35Q76.5-3.35 77.87-4.1 79.25-4.85 79.25-6.5L79.25-6.5Q79.25-8.2 77.9-9.2 76.55-10.2 73.45-11.45L73.45-11.45Q71.95-12.05 70.57-12.68 69.2-13.3 68.2-14.15 67.2-15 66.59-16.2 66-17.4 66-19.15L66-19.15Q66-22.6 68.55-24.63 71.09-26.65 75.5-26.65L75.5-26.65Q76.59-26.65 77.7-26.53 78.8-26.4 79.75-26.23 80.7-26.05 81.42-25.85 82.15-25.65 82.55-25.5L82.55-25.5 81.7-21.5Q80.95-21.9 79.34-22.33 77.75-22.75 75.5-22.75L75.5-22.75Q73.55-22.75 72.09-21.98 70.65-21.2 70.65-19.55L70.65-19.55Q70.65-18.7 70.97-18.05 71.3-17.4 71.97-16.88 72.65-16.35 73.65-15.9 74.65-15.45 76.05-14.95L76.05-14.95Q77.9-14.25 79.34-13.58 80.8-12.9 81.82-12 82.84-11.1 83.4-9.83 83.95-8.55 83.95-6.7L83.95-6.7Q83.95-3.1 81.27-1.25 78.59 0.6 73.65 0.6L73.65 0.6Q70.2 0.6 68.25 0.03 66.3-0.55 65.59-0.85L65.59-0.85 66.45-4.85Q67.25-4.55 69-3.95 70.75-3.35 73.65-3.35ZM94.54-26L94.54 0 89.89 0 89.89-26 94.54-26ZM92.19-30.7L92.19-30.7Q90.94-30.7 90.07-31.53 89.19-32.35 89.19-33.75L89.19-33.75Q89.19-35.15 90.07-35.98 90.94-36.8 92.19-36.8L92.19-36.8Q93.44-36.8 94.32-35.98 95.19-35.15 95.19-33.75L95.19-33.75Q95.19-32.35 94.32-31.53 93.44-30.7 92.19-30.7ZM118.84-1.5L118.84-2.6Q118.24-2.2 116.52-1.58 114.79-0.95 112.49-0.95L112.49-0.95Q110.14-0.95 108.07-1.7 105.99-2.45 104.44-4.03 102.89-5.6 101.99-7.95 101.09-10.3 101.09-13.55L101.09-13.55Q101.09-16.4 101.94-18.78 102.79-21.15 104.42-22.88 106.04-24.6 108.39-25.58 110.74-26.55 113.69-26.55L113.69-26.55Q116.94-26.55 119.37-26.08 121.79-25.6 123.44-25.2L123.44-25.2 123.44-2Q123.44 4 120.34 6.7 117.24 9.4 110.94 9.4L110.94 9.4Q108.49 9.4 106.32 9 104.14 8.6 102.54 8.05L102.54 8.05 103.39 4Q104.79 4.55 106.82 4.98 108.84 5.4 111.04 5.4L111.04 5.4Q115.19 5.4 117.02 3.75 118.84 2.1 118.84-1.5L118.84-1.5ZM118.79-6.7L118.79-21.9Q118.09-22.1 116.92-22.28 115.74-22.45 113.74-22.45L113.74-22.45Q109.99-22.45 107.97-20 105.94-17.55 105.94-13.5L105.94-13.5Q105.94-11.25 106.52-9.65 107.09-8.05 108.07-7 109.04-5.95 110.32-5.45 111.59-4.95 112.94-4.95L112.94-4.95Q114.79-4.95 116.34-5.48 117.89-6 118.79-6.7L118.79-6.7ZM131.44 0L131.44-25.25Q133.04-25.65 135.69-26.1 138.34-26.55 141.79-26.55L141.79-26.55Q144.89-26.55 146.94-25.68 148.99-24.8 150.21-23.23 151.44-21.65 151.94-19.45 152.44-17.25 152.44-14.6L152.44-14.6 152.44 0 147.79 0 147.79-13.6Q147.79-16 147.46-17.7 147.14-19.4 146.39-20.45 145.64-21.5 144.39-21.98 143.14-22.45 141.29-22.45L141.29-22.45Q140.54-22.45 139.74-22.4 138.94-22.35 138.21-22.28 137.49-22.2 136.91-22.1 136.34-22 136.09-21.95L136.09-21.95 136.09 0 131.44 0ZM166.19-3.35L166.19-3.35Q169.04-3.35 170.41-4.1 171.79-4.85 171.79-6.5L171.79-6.5Q171.79-8.2 170.44-9.2 169.09-10.2 165.99-11.45L165.99-11.45Q164.49-12.05 163.11-12.68 161.74-13.3 160.74-14.15 159.74-15 159.14-16.2 158.54-17.4 158.54-19.15L158.54-19.15Q158.54-22.6 161.09-24.63 163.64-26.65 168.04-26.65L168.04-26.65Q169.14-26.65 170.24-26.53 171.34-26.4 172.29-26.23 173.24-26.05 173.96-25.85 174.69-25.65 175.09-25.5L175.09-25.5 174.24-21.5Q173.49-21.9 171.89-22.33 170.29-22.75 168.04-22.75L168.04-22.75Q166.09-22.75 164.64-21.98 163.19-21.2 163.19-19.55L163.19-19.55Q163.19-18.7 163.51-18.05 163.84-17.4 164.51-16.88 165.19-16.35 166.19-15.9 167.19-15.45 168.59-14.95L168.59-14.95Q170.44-14.25 171.89-13.58 173.34-12.9 174.36-12 175.39-11.1 175.94-9.83 176.49-8.55 176.49-6.7L176.49-6.7Q176.49-3.1 173.81-1.25 171.14 0.6 166.19 0.6L166.19 0.6Q162.74 0.6 160.79 0.03 158.84-0.55 158.14-0.85L158.14-0.85 158.99-4.85Q159.79-4.55 161.54-3.95 163.29-3.35 166.19-3.35Z" opacity="1" transform="matrix(1,0,0,1,0,0)" fill="#80898c" class="slogan-text-1" data-fill-palette-color="secondary" id="text-1"></path></svg></g></svg></g></svg></g></svg></g><g transform="matrix(1,0,0,1,75.54432000000001,0)"><svg viewBox="0 0 244.43135999999996 97.17374363382399" height="97.17374363382399" width="244.43135999999996"><g><svg xmlns="http://www.w3.org/2000/svg" data-name="Layer 1" viewBox="4 31 93.07 37" x="0" y="0" height="97.17374363382399" width="244.43135999999996" class="icon-icon-0" data-fill-palette-color="accent" id="icon-0"><path d="M56.65 39.43a1.06 1.06 0 0 1-0.51-0.14 10.39 10.39 0 0 0-2.8-1.17 1 1 0 0 1-0.73-1.21 1 1 0 0 1 1.22-0.73 12.5 12.5 0 0 1 3.34 1.39 1 1 0 0 1 0.34 1.37A1 1 0 0 1 56.65 39.43Z" fill="#f1f0a5" data-fill-palette-color="accent"></path><path d="M53.58 60.52a1 1 0 0 1-0.24-2 10.7 10.7 0 0 0 2.8-1.16 1 1 0 1 1 1 1.71 12.19 12.19 0 0 1-3.34 1.39Z" fill="#f1f0a5" data-fill-palette-color="accent"></path><path d="M40.85 55.24a1 1 0 0 1-0.86-0.49 12.06 12.06 0 0 1-1.39-3.34 1 1 0 0 1 0.73-1.21 1 1 0 0 1 1.21 0.73 10.17 10.17 0 0 0 1.16 2.79 1 1 0 0 1-0.34 1.38A1.06 1.06 0 0 1 40.85 55.24Z" fill="#f1f0a5" data-fill-palette-color="accent"></path><path d="M47.92 60.52l-0.24 0a12.25 12.25 0 0 1-3.35-1.39 1 1 0 0 1 1-1.71 10.7 10.7 0 0 0 2.8 1.16 1 1 0 0 1-0.24 2Z" fill="#f1f0a5" data-fill-palette-color="accent"></path><path d="M60.66 55.24a1.07 1.07 0 0 1-0.52-0.14 1 1 0 0 1-0.34-1.38A9.87 9.87 0 0 0 61 50.93a1 1 0 0 1 1.22-0.73 1 1 0 0 1 0.72 1.21 12.34 12.34 0 0 1-1.38 3.34A1 1 0 0 1 60.66 55.24Z" fill="#f1f0a5" data-fill-palette-color="accent"></path><path d="M61.93 46.51a1 1 0 0 1-1-0.76A10.06 10.06 0 0 0 59.8 43a1 1 0 0 1 1.72-1 12.47 12.47 0 0 1 1.38 3.34 1 1 0 0 1-0.72 1.22A1.07 1.07 0 0 1 61.93 46.51Z" fill="#f1f0a5" data-fill-palette-color="accent"></path><path d="M44.85 39.43a1 1 0 0 1-0.86-0.49 1 1 0 0 1 0.34-1.37 12.57 12.57 0 0 1 3.35-1.39 1 1 0 0 1 0.48 1.94 10.39 10.39 0 0 0-2.8 1.17A1 1 0 0 1 44.85 39.43Z" fill="#f1f0a5" data-fill-palette-color="accent"></path><path d="M39.57 46.51a1 1 0 0 1-0.24 0 1 1 0 0 1-0.73-1.22A12.19 12.19 0 0 1 40 41.92a1 1 0 1 1 1.71 1 10.37 10.37 0 0 0-1.16 2.8A1 1 0 0 1 39.57 46.51Z" fill="#f1f0a5" data-fill-palette-color="accent"></path><path d="M50.75 57a8.71 8.71 0 1 1 8.7-8.7A8.71 8.71 0 0 1 50.75 57Zm0-15.41a6.71 6.71 0 1 0 6.7 6.71A6.72 6.72 0 0 0 50.75 41.63Z" fill="#f1f0a5" data-fill-palette-color="accent"></path><path d="M53.58 38.15a1 1 0 0 1-1-1V33H48.92v4.17a1 1 0 0 1-2 0V32a1 1 0 0 1 1-1h5.66a1 1 0 0 1 1 1v5.17A1 1 0 0 1 53.58 38.15Z" fill="#f1f0a5" data-fill-palette-color="accent"></path><path d="M60.66 43.44A1 1 0 0 1 60 41.73l3-3-2.59-2.59-3 3a1 1 0 0 1-1.41 0 1 1 0 0 1 0-1.42l3.66-3.66a1 1 0 0 1 1.42 0l4 4a1 1 0 0 1 0 1.42l-3.66 3.66A1 1 0 0 1 60.66 43.44Z" fill="#f1f0a5" data-fill-palette-color="accent"></path><path d="M67.11 52.17H61.93a1 1 0 1 1 0-2h4.18V46.51H61.93a1 1 0 0 1 0-2h5.18a1 1 0 0 1 1 1v5.66a1 1 0 0 1-0.29 0.71A1 1 0 0 1 67.11 52.17Z" fill="#f1f0a5" data-fill-palette-color="accent"></path><path d="M60.32 62.91a1 1 0 0 1-0.71-0.3L56 59a1 1 0 0 1 1.41-1.41l3 3 2.59-2.58-3-3a1 1 0 1 1 1.42-1.42L65 57.2a1 1 0 0 1 0 1.41l-4 4A1 1 0 0 1 60.32 62.91Z" fill="#f1f0a5" data-fill-palette-color="accent"></path><path d="M47.92 65.7a1 1 0 0 1-1-1V59.52a1 1 0 1 1 2 0V63.7h3.66V59.52a1 1 0 1 1 2 0V64.7a1 1 0 0 1-1 1Z" fill="#f1f0a5" data-fill-palette-color="accent"></path><path d="M41.18 62.91a1 1 0 0 1-0.7-0.3l-4-4a1 1 0 0 1 0-1.41l3.66-3.67a1 1 0 0 1 1.41 0 1 1 0 0 1 0 1.42l-2.95 3 2.58 2.58 3-3a1 1 0 0 1 1.42 0 1 1 0 0 1 0 1.41l-3.67 3.66A1 1 0 0 1 41.18 62.91Z" fill="#f1f0a5" data-fill-palette-color="accent"></path><path d="M39.57 52.17H34.39a1 1 0 0 1-1-1V45.51a1 1 0 0 1 0.29-0.71 1 1 0 0 1 0.71-0.29h5.18a1 1 0 0 1 0 2H35.39v3.66h4.18a1 1 0 1 1 0 2Z" fill="#f1f0a5" data-fill-palette-color="accent"></path><path d="M40.84 43.44a1 1 0 0 1-0.7-0.3l-3.66-3.66a1 1 0 0 1 0-1.42l4-4a1 1 0 0 1 1.41 0l3.67 3.66a1 1 0 0 1-1.42 1.42l-3-3L38.6 38.77l2.95 3a1 1 0 0 1 0 1.41A1 1 0 0 1 40.84 43.44Z" fill="#f1f0a5" data-fill-palette-color="accent"></path><path d="M4 48.74L34.5 33v4.54L8.77 50.45v0.13L34.5 63.48V68L4 52.29Z" fill="#f1f0a5" data-fill-palette-color="accent"></path><path d="M97.07 52.36L66.53 68V63.48l25.93-12.9v-0.13L66.53 37.55V33L97.07 48.67Z" fill="#f1f0a5" data-fill-palette-color="accent"></path></svg></g></svg></g><g></g></svg></g></svg></g></svg></g><defs></defs></svg><rect width="395.52" height="247.2" fill="none" stroke="none" visibility="hidden"></rect></g></svg></g></svg>